<svg
  enable-background="new 0 0 32 32"
  height="32px"
  version="1.1"
  viewBox="0 0 32 32"
  width="32px"
  xml:space="preserve"
  xmlns="http://www.w3.org/2000/svg"
  xmlns:xlink="http://www.w3.org/1999/xlink"
>
  <g id="Github">
    <path
      d="M11.393,30.176c-0.171,0-0.342-0.029-0.506-0.089C4.695,27.841,0.728,21.911,1.015,15.33   c0.012-0.275,0.232-0.485,0.521-0.478c0.276,0.012,0.49,0.246,0.478,0.521c-0.268,6.142,3.435,11.677,9.214,13.772   c0.151,0.056,0.318,0.033,0.453-0.063c0.139-0.098,0.218-0.25,0.217-0.417l-0.008-1.573c-3.927,0.561-4.857-2.375-4.867-2.406   c-0.552-1.405-1.342-1.82-1.35-1.824c-0.342-0.229-0.996-0.676-0.81-1.262c0.167-0.528,0.852-0.563,1.136-0.572   c1.736,0.122,2.616,1.693,2.652,1.76c0.956,1.643,2.414,1.446,3.335,1.094c0.09-0.452,0.239-0.863,0.439-1.216   c-2.872-0.486-6.176-1.973-6.176-7.568c0-1.531,0.479-2.88,1.424-4.016C7.465,10.408,7.205,8.97,7.917,7.157   C7.972,7.017,8.087,6.91,8.23,6.864C8.374,6.817,9.703,6.47,12.46,8.29c1.119-0.291,2.309-0.442,3.539-0.448   c1.234,0.006,2.423,0.157,3.543,0.448c2.756-1.82,4.08-1.473,4.226-1.426c0.143,0.046,0.257,0.153,0.312,0.292   c0.715,1.813,0.456,3.251,0.247,3.927c0.944,1.133,1.422,2.482,1.422,4.016c0,5.595-3.308,7.078-6.185,7.559   c0.354,0.623,0.549,1.426,0.549,2.32c0,1.013-0.005,2.465-0.01,3.692c0,0.166,0.077,0.315,0.214,0.412   c0.137,0.096,0.306,0.119,0.463,0.063C26.295,27.141,30,21.858,30,16c0-3.863-1.54-7.46-4.335-10.129   c-2.794-2.667-6.462-4.037-10.336-3.855c-0.275,0.021-0.509-0.201-0.523-0.476c-0.013-0.276,0.2-0.51,0.476-0.523   c4.152-0.19,8.08,1.274,11.073,4.131C29.351,8.007,31,11.861,31,16c0,6.277-3.97,11.937-9.878,14.084   c-0.463,0.167-0.978,0.099-1.38-0.185c-0.401-0.283-0.64-0.744-0.638-1.233c0.005-1.226,0.01-2.676,0.01-3.688   c0-1.459-0.567-2.107-0.811-2.317c-0.15-0.13-0.21-0.337-0.151-0.526c0.059-0.19,0.225-0.327,0.422-0.349   c3.054-0.34,6.176-1.401,6.176-6.686c0-1.38-0.458-2.582-1.36-3.569c-0.13-0.143-0.167-0.347-0.094-0.526   c0.139-0.34,0.524-1.537-0.042-3.198c-0.423,0.012-1.503,0.189-3.34,1.44c-0.122,0.083-0.274,0.109-0.416,0.068   c-1.084-0.302-2.293-0.465-3.499-0.472c-1.218,0.006-2.395,0.165-3.494,0.472c-0.141,0.042-0.293,0.015-0.416-0.068   c-1.83-1.245-2.91-1.427-3.346-1.438c-0.563,1.661-0.177,2.855-0.039,3.196c0.072,0.179,0.036,0.383-0.094,0.525   c-0.904,0.991-1.362,2.192-1.362,3.57c0,5.282,3.115,6.35,6.162,6.697c0.196,0.022,0.361,0.158,0.42,0.347   c0.059,0.188,0.001,0.395-0.147,0.525c-0.224,0.197-0.621,0.672-0.756,1.64c-0.023,0.17-0.133,0.316-0.29,0.386   c-0.75,0.338-3.316,1.237-4.858-1.413c-0.011-0.019-0.525-0.921-1.444-1.186c0.326,0.218,1.077,0.852,1.631,2.265   c0.043,0.133,0.808,2.409,4.313,1.646c0.148-0.031,0.301,0.003,0.419,0.098c0.118,0.094,0.187,0.237,0.188,0.387l0.011,2.17   c0.002,0.491-0.237,0.955-0.641,1.239C12,30.082,11.698,30.176,11.393,30.176z"
    />
    <path
      d="M15.737,31C7.474,31,1,24.411,1,16c0-3.629,1.238-7.111,3.485-9.804c0.176-0.212,0.493-0.241,0.704-0.063   C5.401,6.31,5.43,6.625,5.253,6.837C3.155,9.35,2,12.604,2,16c0,7.851,6.034,14,13.737,14C23.602,30,30,23.72,30,16   S23.602,2,15.737,2c-2.441,0-4.812,0.62-6.858,1.792C8.641,3.927,8.334,3.845,8.197,3.606C8.06,3.366,8.143,3.061,8.382,2.923   C10.579,1.665,13.123,1,15.737,1C24.153,1,31,7.729,31,16S24.153,31,15.737,31z"
    />
    <g>
      <path
        d="M7.543,4.552c0,0.275-0.225,0.5-0.5,0.5l0,0c-0.275,0-0.5-0.225-0.5-0.5l0,0         c0-0.275,0.225-0.5,0.5-0.5l0,0C7.318,4.052,7.543,4.276,7.543,4.552L7.543,4.552z"
      />
    </g>
  </g>

  <g id="Gmail">
    <path
      d="M27,27c-0.276,0-0.5-0.224-0.5-0.5v-13c0-0.276,0.224-0.5,0.5-0.5s0.5,0.224,0.5,0.5v13   C27.5,26.776,27.276,27,27,27z"
    />
    <path
      d="M5,27c-0.276,0-0.5-0.224-0.5-0.5v-13C4.5,13.224,4.724,13,5,13s0.5,0.224,0.5,0.5v13   C5.5,26.776,5.276,27,5,27z"
    />
    <g>
      <path
        d="M16,14.432c-0.099,0-0.197-0.029-0.282-0.087L3.553,6.021c-0.228-0.156-0.286-0.467-0.13-0.695    c0.156-0.228,0.466-0.287,0.695-0.13L16,13.326l8.958-6.129c0.229-0.156,0.54-0.097,0.695,0.13    c0.156,0.228,0.098,0.539-0.13,0.695l-9.24,6.322C16.197,14.403,16.099,14.432,16,14.432z"
      />
    </g>
    <g>
      <path
        d="M28.5,27h-25C2.122,27,1,25.878,1,24.5v-17C1,7.224,1.224,7,1.5,7S2,7.224,2,7.5v17    C2,25.327,2.673,26,3.5,26h25c0.827,0,1.5-0.673,1.5-1.5v-17C30,6.673,29.327,6,28.5,6C28.224,6,28,5.776,28,5.5S28.224,5,28.5,5    C29.878,5,31,6.122,31,7.5v17C31,25.878,29.878,27,28.5,27z"
      />
    </g>
    <g>
      <path
        d="M16,19c-0.099,0-0.198-0.029-0.284-0.088L2.066,9.498C1.398,9.038,1,8.278,1,7.467    C1,6.107,2.107,5,3.467,5h25.065C29.893,5,31,6.107,31,7.467c0,0.811-0.398,1.57-1.066,2.031l-13.65,9.414    C16.198,18.971,16.099,19,16,19z M3.467,6C2.658,6,2,6.658,2,7.467C2,7.95,2.237,8.401,2.634,8.675L16,17.893l13.366-9.218    C29.763,8.401,30,7.95,30,7.467C30,6.658,29.342,6,28.533,6H3.467z"
      />
    </g>
  </g>

  <g id="LinkedIn">
    <path
      d="M4.983,8.875H4.94C2.657,8.875,1,7.361,1,5.275c0-2.089,1.692-3.606,4.023-3.606   c2.292,0,3.928,1.476,3.977,3.589C9,7.359,7.311,8.875,4.983,8.875z M5.023,2.669C3.243,2.669,2,3.741,2,5.275   c0,1.531,1.209,2.601,2.94,2.601h0.043C6.76,7.875,8,6.804,8,5.27C7.963,3.694,6.795,2.669,5.023,2.669z"
    />
    <path
      d="M7.5,29h-5C2.224,29,2,28.776,2,28.5v-18C2,10.224,2.224,10,2.5,10h5C7.776,10,8,10.224,8,10.5v18   C8,28.776,7.776,29,7.5,29z M3,28h4V11H3V28z"
    />
    <path
      d="M30.5,29h-6c-0.276,0-0.5-0.224-0.5-0.5V19c0-1.654-1.346-3-3-3s-3,1.346-3,3v9.5   c0,0.276-0.224,0.5-0.5,0.5h-6c-0.276,0-0.5-0.224-0.5-0.5v-18c0-0.276,0.224-0.5,0.5-0.5h6c0.276,0,0.5,0.224,0.5,0.5v3.014   c0,0.276-0.224,0.5-0.5,0.5s-0.5-0.224-0.5-0.5V11h-5v17h5v-9c0-2.206,1.794-4,4-4s4,1.794,4,4v9h5V17.5c0-3.584-2.916-6.5-6.5-6.5   c-1.384,0-2.722,0.406-3.871,1.173c-0.229,0.152-0.54,0.092-0.693-0.138s-0.092-0.54,0.139-0.693C20.388,10.464,21.918,10,23.5,10   c4.136,0,7.5,3.364,7.5,7.5v11C31,28.776,30.776,29,30.5,29z"
    />
  </g>

  <g id="Telegram">
    <g>
      <path
        d="M24.687,30.163c-0.402,0-0.843-0.132-1.32-0.395l-10.803-7.976c-0.121-0.089-0.195-0.228-0.203-0.378    c-0.007-0.15,0.053-0.295,0.165-0.396L25.322,9.503c0.205-0.185,0.521-0.169,0.706,0.037c0.185,0.205,0.168,0.521-0.037,0.706    l-12.34,11.106l10.254,7.576c0.271,0.145,0.729,0.329,1.055,0.178c0.332-0.152,0.496-0.637,0.576-1.017l4.375-20.617    c0.17-0.681,0.088-1.229-0.215-1.481c-0.231-0.192-0.575-0.206-0.947-0.038L3.033,15.871C2.244,16.188,1.996,16.514,2,16.622    c0.003,0.071,0.173,0.267,0.68,0.422l6.375,1.99l6.999-4.416c0.234-0.146,0.542-0.077,0.689,0.156    c0.147,0.233,0.078,0.542-0.156,0.689l-7.194,4.539C9.269,20.08,9.116,20.1,8.977,20.057l-6.592-2.058    c-1.17-0.358-1.37-0.99-1.384-1.335c-0.02-0.473,0.253-1.157,1.667-1.723l25.695-9.908c0.697-0.318,1.445-0.25,1.974,0.191    c0.613,0.511,0.813,1.413,0.549,2.474l-4.371,20.598c-0.184,0.878-0.566,1.457-1.137,1.719    C25.163,30.114,24.933,30.163,24.687,30.163z"
      />
    </g>
    <path
      d="M24.687,30.163c-0.402,0-0.843-0.132-1.32-0.395l-6.72-4.959c-0.222-0.164-0.27-0.478-0.105-0.699   c0.164-0.222,0.478-0.27,0.699-0.105l6.664,4.923c0.271,0.145,0.729,0.329,1.055,0.178c0.332-0.152,0.496-0.637,0.576-1.017   l4.375-20.617c0.17-0.681,0.088-1.229-0.215-1.481c-0.231-0.192-0.575-0.206-0.947-0.038L3.033,15.871   C2.244,16.188,1.996,16.514,2,16.622c0.003,0.071,0.173,0.267,0.68,0.422l6.594,2.058c0.158,0.049,0.281,0.174,0.33,0.332   l2.267,7.461c0.061,0.167,0.108,0.333,0.149,0.477c0.032,0.114,0.072,0.256,0.099,0.298c-0.004-0.005,0.076,0.019,0.289,0.02   c0.447,0,0.617-0.167,0.957-0.498l1.66-1.614c0.198-0.194,0.514-0.188,0.707,0.01c0.192,0.198,0.188,0.515-0.01,0.707L14.09,27.88   c-0.402,0.393-0.828,0.809-1.682,0.809c-0.98,0-1.178-0.434-1.351-1.046c-0.035-0.124-0.075-0.267-0.135-0.432l-2.198-7.233   l-6.339-1.979c-1.17-0.358-1.37-0.99-1.384-1.335c-0.02-0.473,0.253-1.157,1.667-1.723l25.695-9.908   c0.697-0.318,1.445-0.25,1.974,0.191c0.613,0.511,0.813,1.413,0.549,2.474l-4.371,20.598c-0.184,0.878-0.566,1.457-1.137,1.719   C25.163,30.114,24.933,30.163,24.687,30.163z"
    />
    <g>
      <g>
        <g>
          <g>
            <g>
              <g>
                <path
                  d="M18.5,14c0,0.275-0.225,0.5-0.5,0.5l0,0c-0.275,0-0.5-0.225-0.5-0.5l0,0c0-0.275,0.225-0.5,0.5-0.5         l0,0C18.275,13.5,18.5,13.725,18.5,14L18.5,14z"
                />
              </g>
            </g>
          </g>
        </g>
      </g>
    </g>
  </g>

  <g id="Twitter">
    <path
      d="M10.621,28.767c-3.334,0-6.583-0.974-9.395-2.817c-0.194-0.127-0.275-0.372-0.196-0.589   c0.08-0.218,0.295-0.352,0.53-0.325c0.441,0.054,0.899,0.081,1.36,0.081c1.806,0,3.534-0.417,5.136-1.24   c0.316-0.162,0.626-0.34,0.927-0.532c-2.192-0.509-4.004-2.166-4.709-4.417c-0.083-0.264,0.064-0.544,0.328-0.626   c0.263-0.084,0.544,0.064,0.626,0.328c0.713,2.278,2.759,3.836,5.09,3.878c0.211,0.004,0.396,0.139,0.464,0.338   s0.004,0.419-0.16,0.551c-0.656,0.527-1.366,0.988-2.109,1.37c-1.572,0.807-3.254,1.256-5.01,1.337   c2.215,1.094,4.641,1.665,7.118,1.665c10.283,0,16.427-8.559,16.427-16.833c0-0.258-0.005-0.517-0.014-0.771   c-0.006-0.165,0.069-0.322,0.203-0.421c1.121-0.828,2.079-1.846,2.845-3.023c0.15-0.231,0.461-0.299,0.691-0.146   c0.231,0.15,0.297,0.46,0.146,0.691c-0.783,1.204-1.75,2.254-2.878,3.124c0.004,0.181,0.007,0.364,0.007,0.546   C28.048,19.699,21.53,28.767,10.621,28.767z"
    />
    <path
      d="M7.44,19.171c-0.033,0-0.067-0.003-0.101-0.01c-2.998-0.614-5.174-3.333-5.174-6.463   c0-0.276,0.224-0.538,0.5-0.538s0.5,0.186,0.5,0.462v0.075c0,2.658,1.84,4.964,4.375,5.483c0.271,0.055,0.445,0.32,0.389,0.59   C7.881,19.008,7.673,19.171,7.44,19.171z"
    />
    <path
      d="M5.361,13.882c-0.097,0-0.196-0.028-0.282-0.087c-1.794-1.228-2.865-3.278-2.865-5.483   c0-1.163,0.301-2.309,0.87-3.313c0.082-0.145,0.23-0.239,0.396-0.252c0.171-0.013,0.327,0.057,0.43,0.187   c2.936,3.689,7.273,5.941,11.899,6.179c0.275,0.014,0.488,0.25,0.474,0.525c-0.014,0.275-0.261,0.483-0.525,0.474   c-4.653-0.24-9.03-2.397-12.126-5.951c-0.274,0.679-0.417,1.41-0.417,2.15c0,1.875,0.908,3.616,2.429,4.658   c0.228,0.156,0.286,0.467,0.13,0.695C5.677,13.806,5.521,13.882,5.361,13.882z"
    />
    <path
      d="M15.646,10.281c-0.012,0-0.024,0-0.036-0.001c-0.275-0.019-0.483-0.258-0.463-0.534   c0.242-3.427,3.066-6.112,6.43-6.112c1.687,0,3.314,0.68,4.511,1.876c1.177-0.266,2.304-0.722,3.353-1.357   c0.178-0.107,0.404-0.094,0.567,0.034c0.164,0.128,0.231,0.344,0.169,0.542c-0.476,1.524-1.482,2.819-2.832,3.646   c-0.235,0.144-0.544,0.07-0.688-0.165c-0.145-0.235-0.07-0.543,0.165-0.688c0.746-0.458,1.368-1.083,1.823-1.822   c-0.843,0.381-1.722,0.665-2.628,0.846c-0.17,0.035-0.349-0.023-0.467-0.153c-1.022-1.119-2.471-1.76-3.973-1.76   c-2.841,0-5.228,2.276-5.433,5.182C16.126,10.08,15.907,10.281,15.646,10.281z"
    />
  </g>
</svg>
